<svg width="1820" height="1009" viewBox="0 0 1820 1009" fill="none" xmlns="http://www.w3.org/2000/svg">
<path d="M84.6744 120.61L71.077 141.548C66.626 137.862 62.7405 135.02 53.1112 128.767L17.8411 105.862C9.33144 100.336 6.1236 98.412 1.16352 95.5093C4.74387 91.4668 7.65819 87.4694 12.6754 79.7436L52.3769 18.6087C56.8851 11.6666 59.2061 7.60228 62.0973 1.67953C66.5426 4.88472 69.605 7.03266 78.3385 12.7043L114.057 35.8998C121.67 40.8444 125.623 43.0927 131.249 45.9504L117.652 66.8885C112.865 62.9839 108.979 60.1422 101.477 55.2704L72.3653 36.365L61.6764 52.8244L85.8617 68.5304C93.2516 73.3295 96.0116 74.9627 103.166 78.6537L89.714 99.3679C84.815 95.3905 81.1535 92.6943 73.4277 87.6771L49.2425 71.971L37.0266 90.7818L65.9145 109.542C74.4242 115.068 79.4962 118.043 84.6744 120.61Z" fill="#8FFF00"/>
<path d="M133.562 181.013L99.524 158.908C91.7981 153.891 87.1347 151.021 82.7345 148.482C85.9512 144.999 89.3746 140.218 94.2464 132.716L132.639 73.5969C137.729 65.7591 140.632 60.799 143.45 54.9882L167.859 70.8397C163.294 76.1531 161.146 79.2155 155.475 87.9491L119.409 143.486L146.505 161.082C156.023 167.263 159.902 169.623 165.601 172.369L151.64 193.867C147.861 190.617 142.52 186.83 133.562 181.013Z" fill="#8FFF00"/>
<path d="M243.005 223.431L229.408 244.37C224.957 240.683 221.071 237.841 211.442 231.588L176.172 208.683C167.662 203.157 164.454 201.233 159.494 198.33C163.075 194.288 165.989 190.291 171.006 182.565L210.708 121.43C215.216 114.488 217.537 110.423 220.428 104.501C224.873 107.706 227.936 109.854 236.669 115.525L272.387 138.721C280.001 143.666 283.954 145.914 289.58 148.772L275.982 169.71C271.195 165.805 267.31 162.963 259.808 158.092L230.696 139.186L220.007 155.646L244.192 171.352C251.582 176.151 254.342 177.784 261.497 181.475L248.045 202.189C243.146 198.212 239.484 195.516 231.758 190.498L207.573 174.792L195.357 193.603L224.245 212.363C232.755 217.889 237.827 220.865 243.005 223.431Z" fill="#8FFF00"/>
<path d="M366.459 239.609L340.485 229.109C344.975 217.539 342.313 208.646 332.683 202.393C319.023 193.522 304.093 199.108 292.095 217.583C280.243 235.834 281.33 252.3 295.214 261.316C301.372 265.315 308.307 266.157 314.463 263.787C318.111 262.336 320.349 260.606 324.075 256.34L345.111 274.935C336.803 283.071 330.776 286.957 322.511 289.39C310.406 292.832 296.782 290.033 283.234 281.235C269.574 272.364 260.804 260.62 258.089 247.395C255.257 233.617 259.062 217.462 268.806 202.459C278.695 187.231 291.759 177.408 306.277 174.419C318.874 171.935 332.873 175.136 345.974 183.643C360.418 193.023 368.527 205.294 369.479 219.762C370.081 226.679 369.294 232.058 366.459 239.609Z" fill="#8FFF00"/>
<path d="M431.304 270.099L394.657 326.532C390.294 333.25 387.318 338.322 384.573 344.021L359.828 327.951C363.917 323.125 367.122 318.679 371.703 311.625L408.351 255.193L395.138 246.613C388.084 242.032 386.108 240.908 377.722 236.417L391.61 215.031C395.014 217.878 400.955 222.214 407.785 226.649L456.827 258.498C464.665 263.587 469.289 266.272 474.803 269.057L460.915 290.443C456.24 286.611 452.018 283.551 443.957 278.316L431.304 270.099Z" fill="#8FFF00"/>
<path d="M505.212 422.365L479.011 405.35C480.666 401.33 482.304 395.867 484.868 384.32C487.611 372.252 487.94 368.804 486.74 364.523C485.771 360.868 483.553 358.155 479.97 355.828L468.549 348.411L456.624 366.774C451.68 374.388 449.213 378.676 446.54 384.263L422.467 368.629C426.484 363.915 428.889 360.702 434.27 352.416L473.39 292.177C477.898 285.235 480.364 280.946 483.183 275.136C487.964 278.559 492.034 281.361 499.648 286.306L528.76 305.211C546.899 316.991 551.316 333.231 540.845 349.355C535.682 357.305 529.371 362.121 522.314 363.428C517.842 364.185 514.691 363.89 508.041 362.118C512.588 367.618 513.491 371.866 511.912 382.142C511.264 386.816 510.36 391.641 507.545 407.006C506.741 410.941 506.267 414.612 505.212 422.365ZM480.983 329.264L498.45 340.608C505.057 344.898 511.705 343.485 515.85 337.102C519.922 330.832 518.447 325.258 511.505 320.75L493.926 309.334L480.983 329.264Z" fill="#8FFF00"/>
<path d="M575.033 335.261L599.666 351.258C596.013 355.413 593.316 359.074 588.008 367.248L549.034 427.263C544.017 434.989 541.55 439.277 539.168 444.416L514.535 428.419C518.043 424.489 521.321 419.931 526.192 412.429L565.167 352.414C570.62 344.017 572.505 340.624 575.033 335.261Z" fill="#8FFF00"/>
<path d="M678.2 442.056L652.226 431.556C656.716 419.986 654.054 411.093 644.424 404.84C630.764 395.969 615.834 401.555 603.836 420.03C591.984 438.281 593.071 454.747 606.955 463.763C613.113 467.762 620.048 468.604 626.204 466.234C629.852 464.783 632.09 463.053 635.816 458.787L656.852 477.382C648.544 485.518 642.517 489.404 634.252 491.837C622.147 495.279 608.523 492.48 594.975 483.682C581.314 474.811 572.545 463.067 569.83 449.842C566.998 436.064 570.803 419.909 580.547 404.906C590.436 389.678 603.5 379.855 618.017 376.866C630.615 374.381 644.614 377.583 657.715 386.09C672.159 395.47 680.268 407.741 681.22 422.209C681.822 429.126 681.035 434.505 678.2 442.056Z" fill="#8FFF00"/>
<path d="M1084.33 477.831L1058.89 467.547C1063.28 456.216 1060.68 447.507 1051.25 441.383C1037.87 432.695 1023.25 438.166 1011.5 456.259C999.889 474.133 1000.95 490.259 1014.55 499.089C1020.58 503.006 1027.37 503.831 1033.4 501.51C1036.98 500.089 1039.17 498.394 1042.82 494.216L1063.42 512.427C1055.28 520.395 1049.38 524.202 1041.28 526.584C1029.43 529.954 1016.09 527.214 1002.82 518.597C989.44 509.909 980.851 498.407 978.193 485.456C975.419 471.962 979.145 456.141 988.688 441.447C998.372 426.534 1011.17 416.914 1025.38 413.986C1037.72 411.553 1051.43 414.688 1064.26 423.02C1078.41 432.206 1086.35 444.224 1087.28 458.393C1087.87 465.167 1087.1 470.435 1084.33 477.831Z" fill="#8FFF00"/>
<path d="M1156.45 482.89C1183.43 500.408 1188.68 530.011 1170.03 558.741C1151.23 587.691 1121.11 595.416 1094.46 578.111C1067.6 560.664 1062.45 530.661 1081.32 501.602C1100.12 472.652 1129.48 465.372 1156.45 482.89ZM1106.89 559.212C1120.16 567.828 1135.4 562.132 1147.07 544.148C1158.61 526.384 1157.47 510.368 1144.21 501.751C1130.83 493.063 1115.55 498.578 1104.09 516.233C1092.48 534.107 1093.51 550.524 1106.89 559.212Z" fill="#8FFF00"/>
<path d="M1200.63 644.095L1167.29 622.446C1159.73 617.533 1155.16 614.723 1150.85 612.236C1154 608.825 1157.35 604.143 1162.12 596.796L1199.72 538.896C1204.71 531.22 1207.55 526.363 1210.31 520.672L1234.22 536.196C1229.75 541.4 1227.64 544.399 1222.09 552.952L1186.77 607.342L1213.3 624.576C1222.63 630.629 1226.42 632.94 1232.01 635.629L1218.33 656.684C1214.63 653.5 1209.4 649.792 1200.63 644.095Z" fill="#8FFF00"/>
<path d="M1275.8 692.914L1242.47 671.266C1234.9 666.352 1230.33 663.542 1226.03 661.055C1229.18 657.644 1232.53 652.962 1237.3 645.615L1274.9 587.716C1279.88 580.04 1282.73 575.182 1285.49 569.491L1309.39 585.016C1304.92 590.219 1302.82 593.218 1297.26 601.772L1261.94 656.162L1288.48 673.395C1297.8 679.448 1301.6 681.76 1307.18 684.449L1293.51 705.503C1289.81 702.32 1284.58 698.611 1275.8 692.914Z" fill="#8FFF00"/>
<path d="M1382.99 734.457L1369.67 754.963C1365.31 751.353 1361.51 748.57 1352.08 742.446L1317.53 720.014C1309.2 714.602 1306.06 712.717 1301.2 709.875C1304.71 705.916 1307.56 702.001 1312.47 694.434L1351.36 634.561C1355.77 627.763 1358.04 623.782 1360.88 617.982C1365.23 621.121 1368.23 623.224 1376.78 628.779L1411.76 651.496C1419.22 656.338 1423.09 658.54 1428.6 661.339L1415.28 681.845C1410.6 678.02 1406.79 675.238 1399.44 670.466L1370.93 651.951L1360.46 668.071L1384.15 683.453C1391.39 688.153 1394.09 689.752 1401.1 693.367L1387.92 713.653C1383.13 709.758 1379.54 707.118 1371.97 702.204L1348.29 686.822L1336.32 705.245L1364.61 723.617C1372.95 729.029 1377.92 731.943 1382.99 734.457Z" fill="#8FFF00"/>
<path d="M1503.89 750.301L1478.46 740.018C1482.85 728.686 1480.24 719.977 1470.81 713.853C1457.44 705.165 1442.81 710.636 1431.06 728.73C1419.46 746.604 1420.52 762.73 1434.12 771.56C1440.15 775.477 1446.94 776.301 1452.97 773.98C1456.54 772.559 1458.74 770.864 1462.38 766.686L1482.99 784.898C1474.85 792.865 1468.95 796.672 1460.85 799.054C1449 802.425 1435.65 799.684 1422.39 791.067C1409.01 782.38 1400.42 770.878 1397.76 757.926C1394.99 744.432 1398.71 728.612 1408.26 713.917C1417.94 699.004 1430.74 689.384 1444.95 686.457C1457.29 684.023 1471 687.159 1483.83 695.49C1497.98 704.677 1505.92 716.694 1506.85 730.863C1507.44 737.638 1506.67 742.906 1503.89 750.301Z" fill="#8FFF00"/>
<path d="M1567.4 780.162L1531.51 835.429C1527.24 842.009 1524.32 846.976 1521.63 852.557L1497.4 836.819C1501.4 832.093 1504.54 827.739 1509.03 820.831L1544.92 765.563L1531.98 757.16C1525.07 752.674 1523.14 751.573 1514.92 747.175L1528.52 726.23C1531.86 729.019 1537.68 733.265 1544.37 737.608L1592.4 768.799C1600.07 773.784 1604.6 776.414 1610 779.141L1596.4 800.086C1591.82 796.333 1587.69 793.336 1579.79 788.209L1567.4 780.162Z" fill="#8FFF00"/>
<path d="M1617.99 785.423L1642.12 801.09C1638.54 805.159 1635.9 808.744 1630.7 816.749L1592.53 875.526C1587.62 883.092 1585.2 887.292 1582.87 892.325L1558.74 876.658C1562.18 872.809 1565.39 868.345 1570.16 860.998L1608.33 802.222C1613.67 793.998 1615.52 790.675 1617.99 785.423Z" fill="#8FFF00"/>
<path d="M1670.26 836.201L1651.9 899.272C1650.86 902.803 1650.86 902.803 1649.07 908.192C1653.52 904.221 1654.17 903.706 1656.07 901.978L1706.23 859.559C1710.93 855.441 1713.69 852.869 1716.44 849.354L1742.21 866.089C1738.54 868.382 1735.91 870.263 1728.26 876.049L1662.14 926.966C1656.79 931.128 1653.27 934.144 1650.94 936.53L1622.43 918.015C1623.73 914.807 1625.06 910.367 1626.61 903.893L1646.12 822.711C1648.06 814.926 1648.74 811.473 1649.66 805.986L1675.32 822.649C1673.48 826.443 1671.69 831.361 1670.26 836.201Z" fill="#8FFF00"/>
<path d="M1772.14 987.178L1758.83 1007.68C1754.47 1004.07 1750.66 1001.29 1741.23 995.166L1706.69 972.734C1698.35 967.322 1695.21 965.438 1690.36 962.595C1693.86 958.636 1696.72 954.721 1701.63 947.154L1740.51 887.282C1744.93 880.483 1747.2 876.502 1750.03 870.702C1754.38 873.841 1757.38 875.945 1765.94 881.499L1800.92 904.216C1808.37 909.058 1812.25 911.26 1817.76 914.059L1804.44 934.565C1799.75 930.741 1795.95 927.958 1788.6 923.187L1760.09 904.671L1749.62 920.791L1773.31 936.173C1780.54 940.873 1783.25 942.472 1790.25 946.087L1777.08 966.374C1772.28 962.478 1768.69 959.838 1761.13 954.924L1737.44 939.542L1725.48 957.965L1753.77 976.338C1762.1 981.75 1767.07 984.664 1772.14 987.178Z" fill="#8FFF00"/>
<path d="M804.843 512H774.543C773.507 505.159 772.73 501.454 771.435 496.608L767.939 484.495H731.034L727.538 496.608C725.854 502.309 724.948 506.727 724.3 512H694C695.942 507.725 697.107 504.304 700.215 494.613L728.185 408.819C730.516 401.836 731.681 397.56 732.329 393.428H766.126C767.032 397.56 767.939 401.266 770.528 408.819L798.628 494.613C801.088 502.166 803.16 508.01 804.843 512ZM761.594 460.552L749.292 417.798L737.249 460.552H761.594Z" fill="#8FFF00"/>
<path d="M813.794 393.428H842.281C841.505 399.271 841.246 404.116 841.246 414.52V490.908C841.246 500.741 841.505 506.014 842.281 512H813.794C814.57 506.442 814.829 500.456 814.829 490.908V414.52C814.829 403.831 814.57 399.698 813.794 393.428Z" fill="#8FFF00"/>
<path d="M954 512H923.699C922.922 507.44 921.368 501.596 917.354 489.768C913.21 477.369 911.656 474.091 908.419 470.956C905.7 468.248 902.462 467.108 898.319 467.108H885.11V490.48C885.11 500.171 885.369 505.444 886.146 512H858.306C859.083 505.444 859.342 501.169 859.342 490.623V413.95C859.342 405.114 859.083 399.841 858.306 393C864.004 393.285 868.795 393.428 877.6 393.428H911.268C932.245 393.428 944.417 405.399 944.417 425.921C944.417 436.04 941.827 444.02 936.777 449.293C933.54 452.571 930.821 454.139 924.476 456.419C931.08 458.699 934.058 461.977 938.202 472.096C940.144 476.656 941.957 481.502 947.784 496.893C949.208 500.884 950.762 504.447 954 512ZM885.11 442.738H905.311C912.951 442.738 917.613 437.607 917.613 429.484C917.613 421.503 913.469 417.37 905.441 417.37H885.11V442.738Z" fill="#8FFF00"/>
</svg>
